<svg xmlns="http://www.w3.org/2000/svg" viewBox="7.3341 6.8483 299.9995 299.997" width="300px" height="299.997px" preserveAspectRatio="none"><g style="pointer-events: none;" transform="matrix(0.9999999999999999, 0, 0, 0.9999999999999999, -44.02935540763599, -76.05070722254231)" id="object-1"><polyline points="93.767 235.334 145.575 235.334 145.575 289.818" stroke-miterlimit="10" style="fill: none; stroke: rgb(2, 56, 113); stroke-width: 20px; stroke-linejoin: bevel; pointer-events: none;" id="object-0"/><path d="M 72.998 202.068 C 44.152 230.949 44.152 277.83 72.998 306.538 C 98.406 331.968 137.625 335.072 166.31 315.699 L 230.06 379.53 C 234.56 384.018 241.99 384.018 246.479 379.53 C 250.621 375.376 250.967 368.972 247.517 364.311 L 246.479 363.099 L 183.237 299.788 C 206.048 270.907 203.971 228.884 177.363 202.068 C 148.506 173.361 101.856 173.361 72.998 202.068 Z M 201.56 82.899 C 130.367 82.899 70.76 132.538 55.552 199.299 C 57.629 196.53 60.04 194.118 62.463 191.522 C 70.413 183.561 79.39 177.503 89.083 173.188 C 103.079 146.557 126.571 125.453 154.898 114.203 L 153.179 116.799 C 145.229 130.288 138.675 146.903 134.163 165.918 C 141.594 166.784 149.025 168.514 156.11 171.111 C 165.617 131.672 183.41 105.388 201.56 105.388 L 203.279 105.388 C 222.294 107.107 240.606 137.211 249.087 180.284 L 174.271 180.284 C 179.083 183.561 183.583 187.368 187.91 191.522 C 191.533 195.157 194.648 198.78 197.406 202.761 L 252.525 202.761 C 253.39 212.441 254.083 222.48 254.083 232.853 C 254.083 248.591 252.71 263.822 250.448 277.83 L 210.883 277.83 C 209.671 281.972 208.125 286.299 206.394 290.453 L 204.317 294.434 L 202.587 297.895 L 205.01 300.307 L 245.613 300.307 C 242.51 311.557 238.875 321.411 234.56 330.064 L 251.14 346.668 C 258.571 333.688 264.617 317.961 268.771 300.307 L 309.548 300.307 C 296.244 321.584 276.894 338.707 253.737 349.08 L 257.025 352.38 L 258.917 354.618 C 262.206 358.945 264.098 363.964 264.617 368.799 C 315.767 345.111 351.363 293.038 351.363 232.853 C 351.363 150.007 284.325 82.899 201.56 82.899 Z M 160.956 218.499 C 180.663 238.391 180.663 270.388 160.956 290.107 C 141.248 309.999 109.113 309.999 89.417 290.107 C 69.721 270.388 69.721 238.391 89.417 218.499 C 109.113 198.78 141.248 198.78 160.956 218.499 Z M 274.99 202.761 L 325.275 202.761 L 325.46 203.28 C 327.687 212.788 328.898 222.653 328.898 232.853 C 328.898 248.591 325.956 263.822 320.775 277.83 L 273.26 277.83 C 275.337 263.476 276.548 248.418 276.548 232.853 C 276.548 222.48 276.029 212.441 274.99 202.761 Z M 248.21 114.203 L 248.556 114.376 C 279.306 126.491 304.021 150.353 317.671 180.284 L 272.048 180.284 C 267.213 153.988 259.102 131.153 248.21 114.203 Z" style="stroke-width: 0.087; fill: rgb(255, 255, 0); pointer-events: none;"/></g></svg>