<svg xmlns="http://www.w3.org/2000/svg" viewBox="7.3342 10.8606 265.0005 69.9998" width="265px" height="69.9998px" preserveAspectRatio="none"><g style="pointer-events: none;" transform="matrix(0.1685809940099716, 0, 0, 0.1649569869041443, -1.3247430719358562, 4.775787019007993)" id="object-1"><polyline points="93.767 235.334 145.575 235.334 145.575 289.818" stroke-miterlimit="10" style="fill: none; stroke: rgb(2, 56, 113); stroke-width: 20px; stroke-linejoin: bevel; pointer-events: none;" id="object-0"/><path d="M 72.998 202.068 C 44.152 230.949 44.152 277.83 72.998 306.538 C 98.406 331.968 137.625 335.072 166.31 315.699 L 230.06 379.53 C 234.56 384.018 241.99 384.018 246.479 379.53 C 250.621 375.376 250.967 368.972 247.517 364.311 L 246.479 363.099 L 183.237 299.788 C 206.048 270.907 203.971 228.884 177.363 202.068 C 148.506 173.361 101.856 173.361 72.998 202.068 Z M 201.56 82.899 C 130.367 82.899 70.76 132.538 55.552 199.299 C 57.629 196.53 60.04 194.118 62.463 191.522 C 70.413 183.561 79.39 177.503 89.083 173.188 C 103.079 146.557 126.571 125.453 154.898 114.203 L 153.179 116.799 C 145.229 130.288 138.675 146.903 134.163 165.918 C 141.594 166.784 149.025 168.514 156.11 171.111 C 165.617 131.672 183.41 105.388 201.56 105.388 L 203.279 105.388 C 222.294 107.107 240.606 137.211 249.087 180.284 L 174.271 180.284 C 179.083 183.561 183.583 187.368 187.91 191.522 C 191.533 195.157 194.648 198.78 197.406 202.761 L 252.525 202.761 C 253.39 212.441 254.083 222.48 254.083 232.853 C 254.083 248.591 252.71 263.822 250.448 277.83 L 210.883 277.83 C 209.671 281.972 208.125 286.299 206.394 290.453 L 204.317 294.434 L 202.587 297.895 L 205.01 300.307 L 245.613 300.307 C 242.51 311.557 238.875 321.411 234.56 330.064 L 251.14 346.668 C 258.571 333.688 264.617 317.961 268.771 300.307 L 309.548 300.307 C 296.244 321.584 276.894 338.707 253.737 349.08 L 257.025 352.38 L 258.917 354.618 C 262.206 358.945 264.098 363.964 264.617 368.799 C 315.767 345.111 351.363 293.038 351.363 232.853 C 351.363 150.007 284.325 82.899 201.56 82.899 Z M 160.956 218.499 C 180.663 238.391 180.663 270.388 160.956 290.107 C 141.248 309.999 109.113 309.999 89.417 290.107 C 69.721 270.388 69.721 238.391 89.417 218.499 C 109.113 198.78 141.248 198.78 160.956 218.499 Z M 274.99 202.761 L 325.275 202.761 L 325.46 203.28 C 327.687 212.788 328.898 222.653 328.898 232.853 C 328.898 248.591 325.956 263.822 320.775 277.83 L 273.26 277.83 C 275.337 263.476 276.548 248.418 276.548 232.853 C 276.548 222.48 276.029 212.441 274.99 202.761 Z M 248.21 114.203 L 248.556 114.376 C 279.306 126.491 304.021 150.353 317.671 180.284 L 272.048 180.284 C 267.213 153.988 259.102 131.153 248.21 114.203 Z" style="stroke-width: 0.087; fill: rgb(255, 255, 0); pointer-events: none;"/><path d="M 420.152 159.527 Q 407.888 159.527 398.48 153.731 Q 389.072 147.935 383.696 137.855 Q 378.32 127.775 378.32 114.671 Q 378.32 101.567 383.612 91.571 Q 388.904 81.575 398.48 76.031 Q 408.056 70.487 420.488 70.487 Q 432.416 70.487 441.236 75.695 Q 450.056 80.903 454.844 90.311 Q 459.632 99.719 459.632 112.487 Q 459.632 114.167 459.548 115.679 Q 459.464 117.191 459.128 119.039 L 388.4 119.039 L 388.4 107.783 L 450.896 107.783 L 446.528 113.999 Q 446.528 98.543 439.724 90.227 Q 432.92 81.911 420.488 81.911 Q 407.72 81.911 399.908 90.731 Q 392.096 99.551 392.096 114.503 Q 392.096 129.791 399.908 138.947 Q 407.72 148.103 420.824 148.103 Q 429.056 148.103 435.272 144.491 Q 441.488 140.879 444.344 134.159 L 457.112 134.159 Q 452.912 145.919 443.084 152.723 Q 433.256 159.527 420.152 159.527 Z M 524.785 157.847 L 496.393 118.031 L 462.457 72.167 L 478.081 72.167 L 504.289 108.959 L 540.409 157.847 Z M 497.233 109.631 L 524.113 72.167 L 539.233 72.167 L 504.289 118.703 Z M 502.945 118.871 L 473.881 157.847 L 458.593 157.847 L 496.393 109.295 Z M 594.362 159.359 Q 582.266 159.359 574.034 153.479 Q 565.802 147.599 562.778 136.847 L 565.466 136.511 L 565.466 192.287 L 552.026 192.287 L 552.026 72.167 L 564.626 72.167 L 564.626 92.159 L 562.778 91.655 Q 565.97 81.743 574.874 76.115 Q 583.778 70.487 595.538 70.487 Q 606.962 70.487 615.446 76.031 Q 623.93 81.575 628.634 91.487 Q 633.338 101.399 633.338 114.671 Q 633.338 128.111 628.466 138.191 Q 623.594 148.271 614.858 153.815 Q 606.122 159.359 594.362 159.359 Z M 592.346 147.599 Q 605.114 147.599 612.338 138.779 Q 619.562 129.959 619.562 114.671 Q 619.562 99.551 612.338 90.899 Q 605.114 82.247 592.346 82.247 Q 579.578 82.247 572.186 91.067 Q 564.794 99.887 564.794 115.175 Q 564.794 130.127 572.186 138.863 Q 579.578 147.599 592.346 147.599 Z M 646.651 157.847 L 646.651 36.887 L 660.091 36.887 L 660.091 157.847 Z M 715.352 159.527 Q 702.752 159.527 693.176 153.647 Q 683.6 147.767 678.308 137.603 Q 673.016 127.439 673.016 114.671 Q 673.016 101.735 678.392 91.823 Q 683.768 81.911 693.26 76.199 Q 702.752 70.487 715.352 70.487 Q 728.12 70.487 737.612 76.199 Q 747.104 81.911 752.396 91.823 Q 757.688 101.735 757.688 114.671 Q 757.688 127.439 752.396 137.603 Q 747.104 147.767 737.612 153.647 Q 728.12 159.527 715.352 159.527 Z M 715.352 148.103 Q 724.088 148.103 730.472 143.819 Q 736.856 139.535 740.384 131.975 Q 743.912 124.415 743.912 114.503 Q 743.912 99.719 736.1 90.815 Q 728.288 81.911 715.352 81.911 Q 702.584 81.911 694.688 90.815 Q 686.792 99.719 686.792 114.503 Q 686.792 124.415 690.32 131.975 Q 693.848 139.535 700.316 143.819 Q 706.784 148.103 715.352 148.103 Z M 770.671 157.847 L 770.671 72.167 L 783.271 72.167 L 783.271 94.007 L 784.111 94.007 L 784.111 157.847 Z M 784.111 113.159 L 781.927 92.831 Q 784.951 81.911 792.679 76.199 Q 800.407 70.487 810.487 70.487 Q 814.687 70.487 816.199 71.159 L 816.199 84.095 Q 815.359 83.759 813.847 83.675 Q 812.335 83.591 810.151 83.591 Q 797.383 83.591 790.747 91.235 Q 784.111 98.879 784.111 113.159 Z M 858.568 159.527 Q 846.304 159.527 836.896 153.731 Q 827.488 147.935 822.112 137.855 Q 816.736 127.775 816.736 114.671 Q 816.736 101.567 822.028 91.571 Q 827.32 81.575 836.896 76.031 Q 846.472 70.487 858.904 70.487 Q 870.832 70.487 879.652 75.695 Q 888.472 80.903 893.26 90.311 Q 898.048 99.719 898.048 112.487 Q 898.048 114.167 897.964 115.679 Q 897.88 117.191 897.544 119.039 L 826.816 119.039 L 826.816 107.783 L 889.312 107.783 L 884.944 113.999 Q 884.944 98.543 878.14 90.227 Q 871.336 81.911 858.904 81.911 Q 846.136 81.911 838.324 90.731 Q 830.512 99.551 830.512 114.503 Q 830.512 129.791 838.324 138.947 Q 846.136 148.103 859.24 148.103 Q 867.472 148.103 873.688 144.491 Q 879.904 140.879 882.76 134.159 L 895.528 134.159 Q 891.328 145.919 881.5 152.723 Q 871.672 159.527 858.568 159.527 Z" style="fill: rgb(0, 8, 20); text-wrap-mode: nowrap; baseline-shift: super; pointer-events: none;"/><path d="M 418.328 400.009 L 372.918 236.239 L 415.399 236.239 L 442.645 349.032 L 444.11 349.032 L 472.088 236.239 L 513.836 236.239 L 542.108 348.447 L 543.573 348.447 L 570.233 236.239 L 612.713 236.239 L 567.303 400.009 L 523.358 400.009 L 493.914 293.075 L 491.864 293.075 L 462.274 400.009 Z M 697.126 403.232 Q 672.223 403.232 654.132 392.905 Q 636.042 382.577 626.374 363.681 Q 616.706 344.784 616.706 319.003 Q 616.706 293.808 626.374 274.692 Q 636.042 255.575 653.546 244.882 Q 671.051 234.189 694.782 234.189 Q 710.456 234.189 724.225 239.169 Q 737.995 244.15 748.468 254.404 Q 758.942 264.657 764.948 280.258 Q 770.954 295.859 770.954 317.099 L 770.954 329.257 L 634.723 329.257 L 634.723 302.304 L 750.299 302.304 L 730.817 309.775 Q 730.817 296.591 726.789 286.777 Q 722.76 276.962 714.777 271.469 Q 706.794 265.976 695.075 265.976 Q 683.21 265.976 674.933 271.542 Q 666.657 277.109 662.336 286.41 Q 658.014 295.712 658.014 307.577 L 658.014 326.474 Q 658.014 340.683 662.995 350.717 Q 667.975 360.751 676.911 366.098 Q 685.846 371.445 697.711 371.445 Q 705.622 371.445 712.14 369.101 Q 718.659 366.757 723.346 362.289 Q 728.034 357.822 730.378 351.23 L 769.196 354.745 Q 765.973 369.394 756.378 380.307 Q 746.784 391.22 731.769 397.226 Q 716.754 403.232 697.126 403.232 Z M 880.809 402.792 Q 867.333 402.792 858.031 398.178 Q 848.729 393.564 843.016 386.899 Q 837.303 380.234 834.227 373.935 L 832.03 373.935 L 832.03 400.009 L 791.014 400.009 L 791.014 181.747 L 832.762 181.747 L 832.762 263.632 L 834.227 263.632 Q 837.303 257.333 842.87 250.522 Q 848.436 243.71 857.665 238.949 Q 866.893 234.189 880.956 234.189 Q 899.413 234.189 914.574 243.71 Q 929.735 253.232 938.744 271.982 Q 947.752 290.732 947.752 318.417 Q 947.752 345.517 938.963 364.34 Q 930.174 383.163 915.013 392.978 Q 899.852 402.792 880.809 402.792 Z M 868.504 369.101 Q 880.516 369.101 888.573 362.509 Q 896.629 355.917 900.804 344.491 Q 904.979 333.066 904.979 318.271 Q 904.979 303.476 900.877 292.197 Q 896.776 280.917 888.719 274.399 Q 880.663 267.88 868.504 267.88 Q 856.786 267.88 848.583 274.106 Q 840.379 280.331 836.131 291.611 Q 831.883 302.89 831.883 318.271 Q 831.883 333.505 836.205 344.858 Q 840.526 356.21 848.729 362.655 Q 856.932 369.101 868.504 369.101 Z M 1015.445 403.232 Q 999.917 403.232 987.466 397.665 Q 975.015 392.099 967.911 381.186 Q 960.806 370.273 960.806 354.159 Q 960.806 340.39 965.86 331.235 Q 970.913 322.079 979.703 316.586 Q 988.492 311.093 999.551 308.163 Q 1010.611 305.234 1022.622 304.062 Q 1036.978 302.597 1045.767 301.352 Q 1054.556 300.107 1058.584 297.47 Q 1062.613 294.833 1062.613 289.413 L 1062.613 288.681 Q 1062.613 277.695 1055.948 271.615 Q 1049.283 265.536 1036.685 265.536 Q 1023.501 265.536 1015.664 271.249 Q 1007.828 276.962 1005.191 285.312 L 966.372 281.064 Q 970.181 266.122 979.776 255.649 Q 989.37 245.175 1003.872 239.682 Q 1018.374 234.189 1036.685 234.189 Q 1049.283 234.189 1061.368 237.118 Q 1073.453 240.048 1083.194 246.64 Q 1092.935 253.232 1098.721 263.925 Q 1104.507 274.618 1104.507 289.999 L 1104.507 400.009 L 1064.517 400.009 L 1064.517 377.304 L 1063.345 377.304 Q 1059.683 384.482 1053.164 390.341 Q 1046.646 396.2 1037.344 399.716 Q 1028.042 403.232 1015.445 403.232 Z M 1026.87 373.349 Q 1037.71 373.349 1045.84 369.028 Q 1053.97 364.706 1058.438 357.455 Q 1062.906 350.204 1062.906 341.415 L 1062.906 323.105 Q 1061.001 324.423 1056.973 325.668 Q 1052.945 326.913 1047.964 327.865 Q 1042.984 328.818 1038.077 329.477 Q 1033.169 330.136 1029.507 330.722 Q 1021.158 331.894 1014.712 334.53 Q 1008.267 337.167 1004.605 341.635 Q 1000.943 346.103 1000.943 353.134 Q 1000.943 363.095 1008.267 368.222 Q 1015.591 373.349 1026.87 373.349 Z M 1132.178 461.239 L 1132.178 236.239 L 1173.194 236.239 L 1173.194 263.632 L 1175.391 263.632 Q 1178.468 257.333 1184.034 250.522 Q 1189.6 243.71 1198.829 238.949 Q 1208.057 234.189 1222.12 234.189 Q 1240.577 234.189 1255.738 243.71 Q 1270.899 253.232 1279.908 271.982 Q 1288.917 290.732 1288.917 318.417 Q 1288.917 345.517 1280.128 364.34 Q 1271.339 383.163 1256.177 392.978 Q 1241.016 402.792 1221.973 402.792 Q 1208.497 402.792 1199.195 398.178 Q 1189.893 393.564 1184.18 386.899 Q 1178.468 380.234 1175.391 373.935 L 1173.927 373.935 L 1173.927 461.239 Z M 1209.669 369.101 Q 1221.68 369.101 1229.737 362.509 Q 1237.794 355.917 1241.969 344.491 Q 1246.143 333.066 1246.143 318.271 Q 1246.143 303.476 1242.042 292.197 Q 1237.94 280.917 1229.884 274.399 Q 1221.827 267.88 1209.669 267.88 Q 1197.95 267.88 1189.747 274.106 Q 1181.544 280.331 1177.296 291.611 Q 1173.048 302.89 1173.048 318.271 Q 1173.048 333.505 1177.369 344.858 Q 1181.69 356.21 1189.893 362.655 Q 1198.096 369.101 1209.669 369.101 Z M 1309.734 461.239 L 1309.734 236.239 L 1350.75 236.239 L 1350.75 263.632 L 1352.947 263.632 Q 1356.023 257.333 1361.589 250.522 Q 1367.156 243.71 1376.384 238.949 Q 1385.613 234.189 1399.675 234.189 Q 1418.132 234.189 1433.294 243.71 Q 1448.455 253.232 1457.464 271.982 Q 1466.472 290.732 1466.472 318.417 Q 1466.472 345.517 1457.683 364.34 Q 1448.894 383.163 1433.733 392.978 Q 1418.572 402.792 1399.529 402.792 Q 1386.052 402.792 1376.751 398.178 Q 1367.449 393.564 1361.736 386.899 Q 1356.023 380.234 1352.947 373.935 L 1351.482 373.935 L 1351.482 461.239 Z M 1387.224 369.101 Q 1399.236 369.101 1407.293 362.509 Q 1415.349 355.917 1419.524 344.491 Q 1423.699 333.066 1423.699 318.271 Q 1423.699 303.476 1419.597 292.197 Q 1415.496 280.917 1407.439 274.399 Q 1399.382 267.88 1387.224 267.88 Q 1375.505 267.88 1367.302 274.106 Q 1359.099 280.331 1354.851 291.611 Q 1350.603 302.89 1350.603 318.271 Q 1350.603 333.505 1354.924 344.858 Q 1359.246 356.21 1367.449 362.655 Q 1375.652 369.101 1387.224 369.101 Z M 1619.649 281.357 L 1581.563 284.433 Q 1579.659 276.523 1572.481 270.59 Q 1565.303 264.657 1552.706 264.657 Q 1541.426 264.657 1533.736 269.491 Q 1526.045 274.325 1526.045 282.089 Q 1526.045 288.681 1531.026 293.075 Q 1536.006 297.47 1548.018 299.96 L 1576.729 305.82 Q 1600.167 310.654 1611.739 321.567 Q 1623.311 332.48 1623.311 350.058 Q 1623.311 365.878 1614.156 377.89 Q 1605 389.902 1588.96 396.567 Q 1572.92 403.232 1552.12 403.232 Q 1520.772 403.232 1502.095 390.121 Q 1483.418 377.011 1479.903 354.013 L 1520.772 351.083 Q 1523.116 361.63 1531.246 366.977 Q 1539.375 372.323 1552.12 372.323 Q 1564.864 372.323 1572.774 367.197 Q 1580.684 362.07 1580.684 354.306 Q 1580.684 341.269 1559.151 336.728 L 1531.026 330.868 Q 1507.295 325.888 1495.796 314.242 Q 1484.297 302.597 1484.297 284.579 Q 1484.297 269.052 1492.793 257.773 Q 1501.29 246.493 1516.524 240.341 Q 1531.758 234.189 1552.12 234.189 Q 1582.002 234.189 1599.141 246.933 Q 1616.28 259.677 1619.649 281.357 Z" style="fill: rgb(2, 56, 113); text-transform: lowercase; text-wrap-mode: nowrap; pointer-events: none;"/></g></svg>